<svg width="25" height="25" viewBox="0 0 25 25" fill="none" xmlns="http://www.w3.org/2000/svg">
<g clip-path="url(#clip0_115_462)">
<path d="M21.25 0H3.75C1.67893 0 0 1.67893 0 3.75V21.25C0 23.3211 1.67893 25 3.75 25H21.25C23.3211 25 25 23.3211 25 21.25V3.75C25 1.67893 23.3211 0 21.25 0Z" fill="#7289DA"/>
<path d="M16.8945 19.1406L15.8691 17.9199C17.8711 17.3828 18.6523 16.0156 18.6523 16.0156C16.1133 18.4082 9.17969 18.5059 6.49414 16.0156C6.49414 16.0156 7.17773 17.2852 9.22852 17.9199L8.10547 19.1406C4.6875 19.0918 3.36914 16.7969 3.36914 16.7969C3.36914 11.7188 5.61523 7.66602 5.61523 7.66602C7.91016 6.05469 10.0098 6.05469 10.0098 6.05469L10.1562 6.25C7.32422 7.03125 6.10352 8.30078 6.10352 8.30078C9.42383 6.05469 16.2598 6.25 18.9453 8.30078C18.9941 8.25195 17.334 6.93359 14.7461 6.25L14.9902 6.05469C14.9902 6.05469 17.0898 6.05469 19.3848 7.66602C19.3848 7.66602 21.6309 11.7188 21.6309 16.7969C21.6309 16.7969 20.3125 19.0918 16.8945 19.1406Z" fill="white"/>
<path d="M9.57031 15.332C10.4602 15.332 11.1816 14.5669 11.1816 13.623C11.1816 12.6792 10.4602 11.9141 9.57031 11.9141C8.6804 11.9141 7.95898 12.6792 7.95898 13.623C7.95898 14.5669 8.6804 15.332 9.57031 15.332Z" fill="#7289DA"/>
<path d="M15.2344 15.332C16.1243 15.332 16.8457 14.5669 16.8457 13.623C16.8457 12.6792 16.1243 11.9141 15.2344 11.9141C14.3445 11.9141 13.623 12.6792 13.623 13.623C13.623 14.5669 14.3445 15.332 15.2344 15.332Z" fill="#7289DA"/>
</g>
<defs>
<clipPath id="clip0_115_462">
<rect width="25" height="25" fill="white"/>
</clipPath>
</defs>
</svg>
