<svg xmlns="http://www.w3.org/2000/svg" fill="none" viewBox="0 0 21 20" color="#f5f3f7" width="20" height="20" size="20"><path stroke="currentColor" stroke-linecap="round" stroke-linejoin="round" stroke-width="1.042" d="M3.425 5c0-1.036.84-1.875 1.875-1.875h1.875c1.036 0 1.875.84 1.875 1.875v1.875c0 1.036-.84 1.875-1.875 1.875H5.3a1.875 1.875 0 01-1.875-1.875V5zM3.425 13.125c0-1.036.84-1.875 1.875-1.875h1.875c1.036 0 1.875.84 1.875 1.875V15c0 1.035-.84 1.875-1.875 1.875H5.3A1.875 1.875 0 013.425 15v-1.875zM11.55 5c0-1.036.84-1.875 1.875-1.875H15.3c1.036 0 1.875.84 1.875 1.875v1.875c0 1.036-.84 1.875-1.875 1.875h-1.875a1.875 1.875 0 01-1.875-1.875V5zM11.55 13.125c0-1.036.84-1.875 1.875-1.875H15.3c1.036 0 1.875.84 1.875 1.875V15c0 1.035-.84 1.875-1.875 1.875h-1.875A1.875 1.875 0 0111.55 15v-1.875z"></path></svg>