<svg xmlns="http://www.w3.org/2000/svg" fill="none" viewBox="0 0 21 20" color="#f5f3f7" width="20" height="20" size="20"><path stroke="currentColor" stroke-linecap="round" stroke-linejoin="round" d="M3.3 4.2A1.2 1.2 0 014.5 3h1.2a1.2 1.2 0 011.2 1.2v1.2a1.2 1.2 0 01-1.2 1.2H4.5a1.2 1.2 0 01-1.2-1.2V4.2zM3.3 9.4a1.2 1.2 0 011.2-1.2h1.2a1.2 1.2 0 011.2 1.2v1.2a1.2 1.2 0 01-1.2 1.2H4.5a1.2 1.2 0 01-1.2-1.2V9.4zM8.5 4.2A1.2 1.2 0 019.7 3h1.2a1.2 1.2 0 011.2 1.2v1.2a1.2 1.2 0 01-1.2 1.2H9.7a1.2 1.2 0 01-1.2-1.2V4.2zM8.5 9.4a1.2 1.2 0 011.2-1.2h1.2a1.2 1.2 0 011.2 1.2v1.2a1.2 1.2 0 01-1.2 1.2H9.7a1.2 1.2 0 01-1.2-1.2V9.4zM13.86 4.2a1.2 1.2 0 011.2-1.2h1.2a1.2 1.2 0 011.2 1.2v1.2a1.2 1.2 0 01-1.2 1.2h-1.2a1.2 1.2 0 01-1.2-1.2V4.2zM13.86 9.4a1.2 1.2 0 011.2-1.2h1.2a1.2 1.2 0 011.2 1.2v1.2a1.2 1.2 0 01-1.2 1.2h-1.2a1.2 1.2 0 01-1.2-1.2V9.4zM3.3 14.6a1.2 1.2 0 011.2-1.2h1.2a1.2 1.2 0 011.2 1.2v1.2A1.2 1.2 0 015.7 17H4.5a1.2 1.2 0 01-1.2-1.2v-1.2zM8.5 14.6a1.2 1.2 0 011.2-1.2h1.2a1.2 1.2 0 011.2 1.2v1.2a1.2 1.2 0 01-1.2 1.2H9.7a1.2 1.2 0 01-1.2-1.2v-1.2zM13.86 14.6a1.2 1.2 0 011.2-1.2h1.2a1.2 1.2 0 011.2 1.2v1.2a1.2 1.2 0 01-1.2 1.2h-1.2a1.2 1.2 0 01-1.2-1.2v-1.2z"></path></svg>