<svg xmlns="http://www.w3.org/2000/svg" fill="none" viewBox="0 0 21 20" color="#f5f3f7" width="24" height="24" size="24"><path stroke="currentColor" stroke-linecap="round" stroke-linejoin="round" d="M7.375 5.625h10M7.375 10h10m-10 4.375h10m-13.75-8.75h.006v.006h-.006v-.006zm.313 0a.312.312 0 11-.625 0 .312.312 0 01.624 0zM3.624 10h.006v.006h-.006V10zm.313 0a.312.312 0 11-.625 0 .312.312 0 01.624 0zm-.313 4.375h.006v.006h-.006v-.006zm.313 0a.312.312 0 11-.625 0 .312.312 0 01.624 0z"></path></svg>