<svg width="24" height="24" viewBox="0 0 24 24" fill="none" xmlns="http://www.w3.org/2000/svg">
<path d="M23.3649 20.1738L18.0776 14.8867C18.9981 13.3961 19.5547 11.6572 19.5547 9.77704C19.5547 4.37711 15.1775 0 9.77735 0C4.37725 0 0 4.37711 0 9.77704C0 15.177 4.37725 19.5541 9.77735 19.5541C11.6576 19.5541 13.3965 18.9975 14.8856 18.0785L20.1744 23.3656C20.6001 23.7772 21.1704 24.005 21.7624 23.9999C22.3545 23.9949 22.9208 23.7574 23.3394 23.3386C23.7579 22.9199 23.9952 22.3535 23.9999 21.7614C24.0047 21.1694 23.7766 20.5992 23.3649 20.1738ZM9.77735 16.5458C6.0394 16.5458 3.00842 13.5149 3.00842 9.77704C3.00842 6.0392 6.0394 3.00832 9.77735 3.00832C13.5153 3.00832 16.5463 6.0392 16.5463 9.77704C16.5463 13.5149 13.5153 16.5458 9.77735 16.5458Z" fill="#D3F49E"/>
</svg>
