<svg width="25" height="25" viewBox="0 0 25 25" fill="none" xmlns="http://www.w3.org/2000/svg">
<g clip-path="url(#clip0_115_467)">
<path d="M21.25 0H3.75C1.67893 0 0 1.67893 0 3.75V21.25C0 23.3211 1.67893 25 3.75 25H21.25C23.3211 25 25 23.3211 25 21.25V3.75C25 1.67893 23.3211 0 21.25 0Z" fill="#37AEE2"/>
<path d="M9.7168 19.7266C9.17969 19.7266 9.22852 19.5312 9.08203 19.043L7.51953 13.916L19.4824 6.88477" fill="#C8DAEA"/>
<path d="M9.7168 19.7266C10.0586 19.7266 10.2539 19.5312 10.498 19.3359L12.6953 17.2363L9.96094 15.5762" fill="#A9C9DD"/>
<path d="M9.9614 15.5765L16.5532 20.4105C17.2368 20.85 17.8227 20.6058 18.018 19.7269L20.7036 7.12927C20.9477 6.05505 20.2641 5.56677 19.5317 5.90857L3.85789 11.9633C2.8325 12.3539 2.8325 12.9886 3.66258 13.2328L7.71531 14.5023L16.9927 8.59412C17.4321 8.34998 17.8227 8.44763 17.5298 8.78943" fill="#F6FBFE"/>
</g>
<defs>
<clipPath id="clip0_115_467">
<rect width="25" height="25" fill="white"/>
</clipPath>
</defs>
</svg>
