<svg width="25" height="25" viewBox="0 0 25 25" fill="none" xmlns="http://www.w3.org/2000/svg">
<g clip-path="url(#clip0_115_472)">
<mask id="mask0_115_472" style="mask-type:luminance" maskUnits="userSpaceOnUse" x="0" y="0" width="25" height="25">
<path d="M25 0H0V25H25V0Z" fill="white"/>
</mask>
<g mask="url(#mask0_115_472)">
<path d="M22.0703 0H2.92969C1.31167 0 0 1.31167 0 2.92969V22.0703C0 23.6883 1.31167 25 2.92969 25H22.0703C23.6883 25 25 23.6883 25 22.0703V2.92969C25 1.31167 23.6883 0 22.0703 0Z" fill="black"/>
<path d="M17.3779 4.88281H19.9623L14.3162 11.3359L20.9584 20.1172H15.7576L11.6842 14.7914L7.02322 20.1172H4.4373L10.4763 13.2148L4.10449 4.88281H9.43728L13.1193 9.75078L17.3779 4.88281ZM16.4709 18.5703H17.9029L8.65915 6.34844H7.12244L16.4709 18.5703Z" fill="white"/>
</g>
</g>
<defs>
<clipPath id="clip0_115_472">
<rect width="25" height="25" fill="white"/>
</clipPath>
</defs>
</svg>
