<svg width="319" height="176" viewBox="0 0 319 176" fill="none" xmlns="http://www.w3.org/2000/svg">
<path fill-rule="evenodd" clip-rule="evenodd" d="M318.093 59.736C317.007 57.2966 308.445 48.6256 297.156 37.6624C279.489 20.5016 276.416 16.5849 274.52 16.7208C272.619 16.8566 270.452 20.5695 264.9 26.3426C259.4 32.0647 255.942 35.5909 254.692 36.7851C251.528 39.8018 251.517 39.5245 248.897 36.7851C248.15 36.004 240.352 27.6783 234.342 21.2487C227.507 13.9304 222.363 8.40636 221.327 7.66492C219.386 6.27824 218.181 6.43106 217.026 7.82906C214.819 10.5005 211.3 14.7172 204.916 21.8147C200.582 26.6312 194.289 33.4005 193.848 33.8929C192.761 35.1154 192.263 35.1947 190.769 33.7005C189.275 32.2062 164.688 4.74441 161.977 2.03332C159.266 -0.677773 159.476 -0.677773 156.765 2.03332C154.055 4.74441 129.467 32.2062 127.973 33.7005C126.479 35.189 125.981 35.1098 124.895 33.8929C124.459 33.4005 118.161 26.6312 113.826 21.8147C107.443 14.7172 103.923 10.5005 101.716 7.82906C100.561 6.43106 99.3618 6.27824 97.4152 7.66492C96.3796 8.40636 91.2357 13.9304 84.3998 21.2487C78.3901 27.684 70.5922 36.004 69.8452 36.7851C67.2252 39.5245 67.2139 39.8018 64.0506 36.7851C62.8 35.5909 59.3424 32.0647 53.842 26.3426C48.2906 20.5695 46.1176 16.8566 44.2219 16.7208C42.3262 16.5849 39.2535 20.5016 21.5865 37.6624C10.2971 48.6256 1.73525 57.2966 0.64875 59.736C-0.432091 62.1697 0.1055 66.5618 0.365807 68.4013C1.44665 70.6822 8.07319 88.9128 14.8921 107.296C24.0538 131.99 34.2793 159.656 35.0772 161.326C36.5711 164.444 39.4402 170.008 41.9584 171.808C44.8048 173.84 49.0716 175.673 52.4613 175.804C53.5817 175.849 77.2753 176.036 108.535 175.866C157.02 175.594 161.722 175.594 210.207 175.866C241.467 176.041 265.161 175.849 266.281 175.804C269.671 175.668 273.937 173.84 276.784 171.808C279.302 170.008 282.171 164.444 283.665 161.326C284.463 159.656 294.688 131.99 303.85 107.296C310.669 88.9128 317.296 70.6822 318.376 68.4013C318.637 66.5618 319.174 62.1697 318.093 59.736ZM290.931 118.599C285.153 134.747 275.658 160.194 274.973 161.32C273.077 164.438 269.942 166.974 266.281 167.11C265.07 167.155 227.761 167.274 196.428 167.274H122.314C90.981 167.274 53.6722 167.155 52.4613 167.11C48.8 166.974 45.6649 164.438 43.7692 161.32C43.0845 160.194 33.5889 134.747 27.8113 118.599C11.542 73.1103 8.93897 67.3938 9.13703 64.2639C9.34641 60.9472 14.8525 56.0797 28.3771 42.7563C36.3788 34.8721 42.8864 28.0972 43.7692 28.0972C44.5162 28.0972 45.5801 29.314 49.3149 33.1345C55.0586 38.9981 62.6924 46.8824 64.0506 48.3709C65.4087 49.8595 67.9439 50.1311 69.8452 48.3709C70.8355 47.454 75.2268 42.8299 83.8339 33.1345C93.3238 22.4486 96.3117 19.4545 97.4152 18.4187C99.7183 16.251 98.9374 16.6811 101.376 18.9847C102.497 20.0431 107.148 25.1993 112.128 30.8705C117.985 37.5379 123.338 43.809 124.012 44.4543C125.579 45.9541 127.611 45.9428 129.105 44.4543C130.599 42.9657 154.836 14.836 156.833 12.7588C158.531 10.9986 160.228 10.9986 161.926 12.7588C163.924 14.836 188.144 42.9657 189.637 44.4543C191.131 45.9428 193.163 45.9541 194.73 44.4543C195.404 43.809 200.757 37.5379 206.614 30.8705C211.594 25.1993 216.245 20.0431 217.366 18.9847C219.805 16.6811 219.024 16.251 221.327 18.4187C222.431 19.4545 225.418 22.4486 234.908 33.1345C243.515 42.8299 247.907 47.454 248.897 48.3709C250.793 50.1311 253.334 49.8595 254.692 48.3709C256.05 46.8824 263.684 38.9981 269.427 33.1345C273.162 29.3197 274.226 28.0972 274.973 28.0972C275.856 28.0972 282.363 34.8721 290.365 42.7563C303.89 56.0797 309.396 60.9472 309.605 64.2639C309.803 67.3938 307.2 73.1103 290.931 118.599ZM0.309233 68.6447C0.563881 69.6069 0.50162 69.3295 0.365807 68.3956C0.190383 68.0221 0.162103 68.0787 0.309233 68.6447ZM318.376 68.4013C318.246 69.3295 318.184 69.6068 318.433 68.6503C318.58 68.0787 318.552 68.0221 318.376 68.4013Z" fill="black"/>
<path fill-rule="evenodd" clip-rule="evenodd" d="M122.071 123.687H119.173V126.579H122.071V123.687ZM266.869 120.789H235.01V123.682H263.972V126.574H266.869V129.466H269.767V149.728H266.869V152.621H263.972V155.513H235.01V123.67H211.843V120.778H197.362V123.67H208.945V146.83H229.216V155.513H197.356V123.67H188.67V120.778H156.816V123.67H185.778V126.562H188.675V129.455H191.573V138.137H188.675V141.029H185.778V143.921H188.675V146.814H191.573C191.573 146.814 191.42 155.009 191.573 155.496C191.726 155.983 179.989 155.496 179.989 155.496V149.706H177.092V146.814H168.405V155.496H156.822V123.653H153.924V126.545H151.027V123.653H148.13V120.761H122.065V123.653H145.232V126.545H148.13V129.438H151.027V149.7H148.13V152.592H145.232V155.484H122.065V152.592H119.168V149.7H116.27V129.438H119.168V126.545H116.27V123.653H113.373V120.761H95.9947V123.653H87.3084V120.761H72.8274V123.653H84.4111V135.233H87.3084V132.341H90.2057V129.449H93.1031V132.341H96.0004V135.233H98.8977V123.653H110.481V155.496H98.8977V152.604H96.0004V149.711H93.1031V146.819H90.2057V149.711H87.3084V152.604H84.4111V155.496H72.8274V123.653H35.179V129.443H38.0764V138.126H40.9737V146.808H43.871V155.49H46.7684V158.382H49.6657V161.275H67.044V158.382H72.8387V161.275H90.2171V158.382H93.1144V155.49H96.0117V158.382H98.9091V161.275H116.287V155.484H119.185V158.377H122.082V161.269H151.044V158.377H156.839V161.269H174.217V155.479H177.114V158.371H180.012V161.263H197.39V158.371H200.287V161.263H235.038V158.371H237.936V161.263H269.79V158.371H272.687V155.479H275.584V146.797H278.481V138.114H281.379V129.432H284.276V123.642H266.898V120.789H266.869ZM64.1467 152.632H61.2494V155.524H52.563V152.632H49.6657V143.95H52.563V141.057H61.2494V143.95H64.1467V152.632ZM130.757 146.847H136.552V143.955H139.449V135.273H136.552V132.381H130.757V135.273H127.86V143.955H130.757V146.847ZM177.092 138.16H179.989V132.369H177.092V129.477H168.405V141.057H177.092V138.16ZM255.286 143.95H258.183V135.267H255.286V132.375H246.599V146.847H255.286V143.95ZM73.4159 114.229C73.4272 114.711 73.7215 115.022 73.9931 114.999C76.4773 114.824 83.0699 114.784 90.2114 114.807C99.3108 114.835 109.129 115.288 109.904 114.422C111.619 112.498 111.545 98.3761 110.481 97.6347C109.423 96.8932 108.846 100.012 106.622 100.431C104.392 100.855 93.2615 99.7684 91.5639 100.719C89.8662 101.676 87.3141 103.419 87.3141 103.419C87.3141 103.419 87.3141 81.4134 87.3141 79.2966C89.3513 79.2287 90.6471 79.3419 92.2372 78.8155C93.8274 78.2835 97.6924 71.5029 99.2882 70.303C100.511 69.3861 102.599 68.7409 98.8015 68.9729C96.3286 69.1257 90.0303 69.2389 87.2178 69.1654C87.1669 65.1355 87.1273 63.6809 87.0255 61.5415C86.8953 58.8587 86.6803 55.3213 86.5445 53.8214C88.0045 53.7648 89.1985 53.7591 90.2114 53.8214C91.6318 53.9063 91.9939 55.2137 93.1087 57.0079C93.9123 58.2984 94.8686 59.7416 95.6212 60.1944C96.4248 60.6755 99.3957 60.3472 103.057 60.3869C106.865 60.4321 111.166 60.4208 112.134 59.7133C114.188 58.2078 112.711 58.5927 111.845 58.9436C111.177 59.2096 107.929 56.9117 105.377 53.4422C103.17 50.4481 101.682 46.9333 99.0053 45.9145C98.0999 45.5692 95.4006 45.7787 92.922 45.7221C89.4588 45.6428 88.2874 45.4051 86.7425 45.5296C85.3108 45.6428 85.1411 46.7861 80.3706 51.3197C77.5808 53.9685 75.8039 55.6552 74.757 57.0192C73.9478 58.072 73.4159 58.9323 73.4216 59.9058C73.4329 62.1075 73.5687 71.169 73.7102 85.1885C73.846 99.3326 73.3989 113.369 73.4159 114.229ZM113.379 112.107C113.333 113.528 115.031 114.999 116.276 114.999C116.927 114.999 119.671 114.994 122.552 114.999C125.274 115.005 128.013 115.05 128.635 114.903C130.565 114.445 130.118 113.98 128.635 113.941C127.141 113.901 127.362 111.366 127.379 109.985C127.481 101.28 127.407 85.9639 127.379 83.2585C130.423 82.8906 137.921 82.1605 142.341 82.6812C142.341 84.4471 142.024 110.137 142.341 112.113C142.601 113.737 142.573 115.005 145.238 115.005C146.11 115.005 148.311 115.022 150.676 115.028C154.196 115.039 158.061 115.022 158.367 114.909C158.916 114.705 158.831 114.246 158.27 114.043C157.501 113.765 157.173 112.684 156.822 110.856C156.352 108.405 157.688 68.6786 156.822 65.7921C156.703 65.3902 156.369 64.7054 155.622 64.0828C150.931 60.1831 138.923 50.199 135.199 46.9729C133.886 45.8353 133.298 45.8466 131.764 47.4144C126.785 52.4913 123.055 57.3984 115.212 64.1507C112.847 66.1883 113.305 67.4561 113.379 69.7483C113.73 80.4965 113.492 108.513 113.379 112.107ZM129.116 59.8096C129.608 59.7077 132.438 62.5206 134.911 64.728C137.802 67.3146 139.274 68.5937 141.667 70.5181C142.375 71.0841 142.607 71.7972 142.539 73.1216C142.397 75.8214 142.346 80.2644 142.346 80.2644C142.346 80.2644 132.653 79.8965 127.384 80.1682C127.379 76.7723 127.333 66.0751 126.903 62.1244C127.916 60.8793 128.72 59.8888 129.116 59.8096ZM153.636 58.3606C154.258 58.1229 154.756 58.2021 155.565 59.0341C156.652 60.1491 158.174 61.4679 159.329 62.6055C160.206 63.4658 160.421 64.1337 160.393 65.0167C160.155 72.7028 160.868 102.53 159.425 111.915C159.046 114.371 158.882 114.875 160.681 114.909C169.82 115.067 174.375 114.626 181.919 114.62C186.842 114.62 193.921 115.005 195.919 114.909C196.903 114.863 197.175 114.784 197.367 114.235C197.781 113.058 197.503 105.27 197.752 100.051C197.877 97.4196 197.277 97.7648 196.688 98.6987C196.106 99.6326 195.924 100.068 193.406 100.436C191.624 100.697 181.393 100.012 178.348 101.014C175.886 101.823 174.291 103.113 172.361 104.97C173.725 101.931 173.917 93.7803 173.866 84.1188C173.81 74.3385 173.906 63.7828 174.291 58.7455C174.364 57.8229 174.189 57.0758 173.521 56.5268C170.686 54.2006 165.146 49.4236 163.578 48.4218C163.013 48.0596 162.237 48.3369 161.671 48.869C159.385 50.9971 155.871 55.4854 153.732 57.4946C152.278 58.8587 152.363 58.8474 153.636 58.3606ZM192.733 59.0341C193.593 58.8587 194.974 59.7982 196.785 61.4453C197.979 62.532 199.014 63.613 199.778 64.6318C200.214 65.2147 200.338 65.6166 200.355 66.7542C200.423 70.9369 199.852 110.375 200.259 112.107C200.667 113.833 201.73 114.699 203.156 114.999C203.847 115.146 206.976 114.948 210.202 114.999C213.648 115.05 216.319 114.999 216.862 114.614C217.609 114.082 217.615 114.06 216.477 114.133C215.266 114.212 214.768 113.347 214.74 112.107C214.446 100.414 215.306 71.9274 215.414 67.4278C215.504 63.8281 215.397 62.1188 214.933 61.2528C215.464 60.8057 215.855 60.4321 216.574 59.9001C217.468 61.0208 218.945 62.6225 219.663 63.7602C220.54 65.1412 221.876 67.6428 221.882 68.1013C221.944 71.8368 221.825 73.0254 221.978 75.7252C222.04 76.7949 223.619 77.9891 227.478 80.7455C230.07 82.5906 232.192 84.1188 232.69 85.0867C233.46 86.5752 233.533 86.5639 233.562 84.6056C233.663 77.5194 233.839 68.4522 233.754 63.6639C233.731 62.4074 233.482 61.6943 232.786 60.6699C233.431 60.2284 233.782 59.8322 234.62 59.3171C235.599 60.0586 237.047 61.7622 238.19 63.1772C239.424 64.711 240.969 67.2693 240.963 67.9372C240.929 70.8916 240.188 109.764 240.794 112.101C241.405 114.439 242.48 114.971 243.306 114.994C244.132 115.016 247.386 114.994 250.447 114.994C253.509 114.994 256.135 115.09 256.819 114.609C257.861 113.879 257.804 113.822 256.723 114.031C255.705 114.229 255.354 113.001 255.274 112.101C255.156 110.783 255.28 66.8957 255.178 65.011C255.122 63.9639 252.106 58.287 248.422 54.5911C245.87 52.0329 243.068 49.1293 240.697 47.1597C239.843 46.4522 239.192 45.9881 237.704 47.3521C235.899 49.0048 232.102 52.2932 229.21 54.3987C227.099 51.2065 226.318 50.2387 223.517 47.0635C222.232 45.6089 221.169 45.9371 220.235 46.871C217.728 49.3727 216.155 51.2914 212.126 54.7836C210.575 52.9215 207.808 49.4463 204.984 47.0635C204.096 46.3164 203.196 45.8466 202.279 46.9672C201.776 47.5785 200.016 49.7123 197.645 52.4687C195.443 55.0269 193.536 56.9683 192.433 58.0663C191.262 59.2436 191.42 59.3002 192.733 59.0341ZM288.594 70.3256C289.42 69.8163 291.367 67.0486 294.094 64.3431C296.233 62.2263 298.587 60.6812 298.729 60.002C298.899 59.1756 295.005 56.0287 291.005 52.2819C287.507 49.0048 284.231 44.8901 283.184 44.1769C281.532 43.0449 279.591 43.1355 277.197 45.3372C275.358 47.0238 272.647 50.765 268.511 54.8911C264.414 58.9775 260.701 62.0509 259.049 63.9639C257.447 65.8204 255.744 69.1484 258.178 71.5878C258.862 72.2726 263.808 79.1607 273.236 86.0602C279.211 90.4353 288.571 96.7913 289.165 99.0892C289.403 100.006 288.973 100.849 288.781 101.885C284.004 100.063 268.199 100.267 263.972 100.533C261.454 100.691 260.333 100.272 260.209 98.8911C259.988 96.4857 260.945 96.1801 261.273 94.2614C261.692 91.7653 261.499 92.7445 260.401 94.4538C259.864 95.2971 259.609 95.3707 258.76 96.9611C257.617 99.1006 258.183 102.48 258.279 105.355C258.404 109.3 258.047 112.09 258.76 113.46C259.145 114.196 259.858 114.62 260.786 114.62C266.513 114.614 278.985 114.218 286.076 114.909C286.862 114.988 288.288 114.818 289.069 113.46C290.28 111.36 291.14 105.179 292.159 101.495C294.768 92.0314 297.314 87.911 295.973 85.9526C294.768 84.1981 286.902 78.4872 280.575 73.5122C275.924 69.8502 268.901 62.3961 267.831 60.8736C268.284 60.1208 270.135 58.1342 271.017 57.206C272.342 55.8137 273.502 54.6534 274.492 54.0195C276.02 55.276 279.574 58.3323 280.575 59.3285C282.12 60.8623 284.123 62.9678 287.14 66.0807C288.566 67.558 288.594 68.2541 288.107 69.5559C287.513 71.1237 287.434 71.0445 288.594 70.3256ZM35.479 114.229C34.9244 114.082 34.7603 112.548 34.7037 109.486C34.3925 93.3671 35.3432 81.0115 34.9018 71.101C34.715 66.924 34.0529 58.8191 33.9341 57.4946C35.3092 55.6608 37.3464 53.7591 38.2801 53.0573C40.9794 54.0987 44.386 57.2343 47.255 60.1039C50.4013 63.2394 52.9818 66.5109 53.5307 67.2467C54.5323 68.5881 54.702 69.2729 53.5307 70.4332C52.8629 71.0954 50.7466 72.6915 48.9923 74.0046C46.6439 75.7648 44.8217 77.1798 43.0052 78.6344C41.4094 79.9135 40.6115 80.904 42.0376 82.3982C43.39 83.8132 45.7554 85.8111 48.6018 88.0921C51.6802 90.5598 54.1362 92.8973 55.2623 94.0746C55.8621 94.7028 55.8565 94.9122 55.9018 95.6027C56.179 100.012 55.6358 109.39 55.8395 111.054C56.1847 113.811 58.1087 115.028 58.9292 115.011C59.9082 114.994 69.1209 115.124 70.1281 114.914C71.3957 114.648 71.3448 114.326 70.4167 114.145C69.6415 113.992 69.3585 111.235 69.6471 101.506C69.7433 98.2346 70.0319 91.8729 69.0699 89.1561C68.7587 88.2845 63.5355 83.8811 60.7684 81.6285C56.9203 78.4929 53.3383 75.7139 52.6593 74.6781C54.9567 72.833 62.6075 66.9523 64.1467 65.5091C65.352 64.3827 65.9405 62.4584 64.7239 60.5906C64.0618 59.5718 60.2194 54.1157 56.5186 50.6518C49.4733 44.0581 45.8686 43.3902 44.0634 43.509C42.3148 43.6279 37.6859 48.9652 34.217 52.4856C27.1887 59.6058 23.12 63.0017 20.0246 66.092C17.1952 68.9163 17.5234 68.4466 18.4798 71.4972C23.0295 85.9753 30.4539 113.081 31.4159 114.048C32.3496 114.988 33.7473 115.016 34.8904 114.914C36.3334 114.784 36.3618 114.462 35.479 114.229Z" fill="black"/>
</svg>
