<svg width="131" height="120" viewBox="0 0 131 120" xmlns="http://www.w3.org/2000/svg">
<path d="M50.5014 32.3722C52.7409 32.3722 54.5733 30.5398 54.5733 28.3002C54.5733 27.893 54.5733 27.4858 54.3697 27.0786C53.9625 27.4858 53.5553 27.893 52.9445 27.893C51.9266 27.893 51.1122 27.0786 51.1122 26.0606C51.1122 25.4498 51.5194 24.8391 51.9266 24.6355C51.5194 24.4319 50.9086 24.4319 50.5014 24.4319C48.2618 24.4319 46.4294 26.2642 46.4294 28.5038C46.4294 30.5398 48.2618 32.3722 50.5014 32.3722ZM49.2798 28.0966C49.8906 28.0966 50.2978 28.5038 50.2978 29.1146C50.2978 29.7254 49.8906 30.1326 49.2798 30.1326C48.669 30.1326 48.2618 29.7254 48.2618 29.1146C48.2618 28.5038 48.669 28.0966 49.2798 28.0966Z" />
<path d="M81.8556 27.893C80.8376 27.893 80.0232 27.0786 80.0232 26.0606C80.0232 25.4498 80.4304 24.8391 80.8376 24.6355C80.4304 24.4319 79.8196 24.4319 79.4124 24.4319C77.1728 24.4319 75.3405 26.2642 75.3405 28.5038C75.3405 30.7434 77.1728 32.5758 79.4124 32.5758C81.652 32.5758 83.4844 30.7434 83.4844 28.5038C83.4844 28.0966 83.4844 27.6894 83.2808 27.2822C82.8736 27.4858 82.4664 27.893 81.8556 27.893ZM78.1908 30.1326C77.58 30.1326 77.1728 29.7254 77.1728 29.1146C77.1728 28.5038 77.58 28.0966 78.1908 28.0966C78.8016 28.0966 79.2088 28.5038 79.2088 29.1146C79.2088 29.7254 78.8016 30.1326 78.1908 30.1326Z" />
<path d="M128.683 83.4756C127.462 74.7208 124.408 66.3733 119.929 58.8401C121.557 60.0617 123.186 61.0797 124.815 62.0977C120.947 53.3429 114.024 46.0134 105.677 41.127C139.067 37.8694 132.552 17.9167 119.521 16.6951C111.378 15.8807 105.27 22.5995 101.808 29.9291C101.808 27.2823 102.012 24.8391 102.623 22.5995C100.383 24.0247 98.7544 25.8571 97.94 28.7075C97.5328 25.2463 98.1436 21.5815 99.5688 18.5275C98.1436 19.1383 96.5148 19.5455 95.0896 20.1563C96.1076 17.7131 96.922 15.4735 97.94 13.0303C96.3112 14.0483 94.4788 14.8627 92.85 15.8807C93.868 14.2519 94.886 12.6231 95.904 10.9943C91.832 11.6051 87.76 12.4195 83.8916 13.0303C85.724 11.8087 87.5564 10.3835 89.3888 9.16195C84.5024 9.56915 79.6161 10.7907 75.3405 13.2339C76.5621 11.1979 77.5801 8.95836 78.8017 6.92237C76.5621 7.73676 74.3225 8.75476 72.2865 9.97635C74.5261 6.51517 76.7657 3.66478 77.9873 2.64679C73.7117 3.66478 69.8433 6.71877 67.8073 10.5871C67.4001 7.12596 65.5677 3.86838 62.9209 1.62879C64.5497 4.27558 65.5677 7.12597 65.9749 10.1799C62.5137 7.53316 59.6634 4.07198 57.4238 0C58.849 4.07198 60.4777 8.34756 61.4957 12.6231C58.4418 9.97635 54.777 7.94036 51.1122 6.71877C52.3338 8.75476 53.3518 10.9943 54.5734 13.0303C50.0942 10.7907 45.4114 9.36555 40.525 8.95836C42.3574 10.18 44.1898 11.6051 45.8186 12.8267C41.7466 12.2159 37.6747 11.4015 33.8063 10.7907C34.8243 12.4195 35.8423 14.0483 36.8603 15.6771C35.2315 14.6591 33.3991 13.6411 31.7703 12.8267C32.7883 15.0663 33.8063 17.5095 34.6207 19.9527C33.1955 19.3419 31.5667 18.7311 30.1415 18.3239C31.7703 21.3779 32.3811 25.0427 31.9739 28.5039C31.3631 25.8571 29.5307 24.0247 27.4947 22.3959C28.1055 24.8391 28.3091 27.2823 28.3091 29.7255C24.6443 22.3959 18.74 15.6771 10.596 16.4915C-2.43434 17.7131 -8.94951 37.6658 24.4407 40.9234C16.0932 45.6062 9.1708 52.9357 5.30242 61.8941C6.93121 60.6725 8.56 59.6545 10.1888 58.6365C5.70962 66.1697 2.65563 74.5172 1.43404 83.272C1.84123 82.0504 2.65563 80.8288 3.47003 79.6072C3.87722 92.2303 0.212442 105.871 6.32041 110.147C5.50602 111.572 5.70962 113.812 6.72761 115.441C8.1528 114.015 8.9672 112.59 9.1708 111.369C10.1888 111.572 11.614 111.776 13.0392 111.572C13.2428 111.572 13.2428 111.572 13.2428 111.572C13.2428 113.201 14.4644 115.033 16.0932 115.848C16.704 114.015 16.704 112.183 16.2968 111.165C17.5184 110.758 18.5364 110.351 19.3508 109.74C20.3687 110.961 22.2011 111.572 23.8299 111.572C23.2191 109.333 22.2011 107.907 21.1831 107.297C24.0335 100.374 16.5004 87.9548 15.0752 81.4396C15.8896 82.8648 16.704 84.29 17.5184 85.7152C17.3148 81.8468 17.722 77.9784 18.9436 74.3136C19.1472 75.7388 19.3508 77.164 19.3508 78.5892C19.3508 74.9244 19.9615 71.0561 20.9795 67.5949C20.9795 67.7985 20.9795 68.0021 20.7759 68.2057C21.5903 67.3913 22.6083 66.5769 23.8299 66.1697C22.6083 69.2237 21.9975 72.4812 21.9975 75.7388C21.9975 83.8828 26.2731 93.0447 36.2495 99.1527C36.2495 104.446 35.4351 110.351 32.5847 112.183C32.3811 112.387 19.7579 118.087 32.3811 119.513C37.2675 119.92 42.3574 119.92 47.2438 119.309C53.9626 118.495 54.9806 116.255 54.1662 112.59C53.5554 109.943 52.741 107.5 52.1302 105.057C55.9986 105.668 60.0706 106.279 64.7533 106.279C69.4361 106.279 73.5081 105.871 77.3765 105.261C76.5621 107.704 75.7477 110.351 75.3405 112.794C74.5261 116.459 75.5441 118.698 82.2628 119.513C87.1492 120.123 92.2392 120.123 97.1256 119.716C109.749 118.495 97.1256 112.59 96.922 112.387C94.0716 110.554 93.2572 104.853 93.2572 99.7635C107.306 91.6196 109.749 77.3676 105.677 66.3733C106.898 66.7805 107.916 67.3913 108.731 68.4093C108.731 68.2057 108.731 68.0021 108.527 67.7985C109.749 71.4632 110.156 75.128 110.156 78.9964C110.36 77.5712 110.563 76.146 110.563 74.7208C111.785 78.3856 112.192 82.254 111.988 86.1224C112.803 84.6972 113.617 83.272 114.431 81.8468C113.006 88.362 105.677 100.985 108.324 107.704C107.306 108.518 106.288 109.943 105.677 111.979C107.306 112.183 109.138 111.369 110.156 110.147C110.97 110.758 111.988 111.369 113.21 111.572C112.803 112.794 112.803 114.423 113.413 116.255C115.042 115.441 116.264 113.608 116.264 111.979H116.467C117.893 112.183 119.318 111.979 120.336 111.776C120.539 112.997 121.354 114.423 122.779 115.848C123.797 114.423 124.204 111.979 123.186 110.554C129.294 106.075 125.833 92.4339 126.037 80.0144C127.258 80.8288 128.073 82.0504 128.683 83.4756ZM108.324 35.4262C110.563 26.4679 119.929 20.9707 125.833 24.8391C126.037 25.0427 126.24 25.2463 126.444 25.4499C126.647 25.6535 126.851 26.0607 127.055 26.2643C127.462 27.2823 127.055 28.5039 126.037 29.7255C122.372 34.8154 115.653 38.2766 108.324 35.4262ZM3.67363 29.7255C2.65563 28.5039 2.24843 27.2823 2.65563 26.2643C2.85923 26.0607 3.06283 25.6535 3.26643 25.4499C3.47003 25.2463 3.67363 25.0427 3.87722 24.8391C9.7816 20.9707 19.3508 26.4679 21.3867 35.4262C14.2608 38.2766 7.54201 34.8154 3.67363 29.7255ZM22.6083 63.3193C22.8119 63.1157 22.8119 62.7085 23.0155 62.5049C23.0155 62.5049 23.0155 62.5049 23.2191 62.5049C23.0155 62.7085 22.8119 62.9121 22.6083 63.3193ZM48.8726 14.8627C56.4058 14.0483 62.5137 19.1383 62.5137 26.2643C62.5137 33.3902 56.4058 39.9054 48.8726 40.7198C41.3394 41.5342 35.2315 36.4442 35.2315 29.3183C35.2315 22.1923 41.3394 15.6771 48.8726 14.8627ZM35.0279 79.4036C36.2495 75.128 38.6927 71.0561 41.7466 67.5949C40.9322 66.5769 38.8963 63.7265 38.8963 62.5049C39.0999 59.4509 42.7646 54.7681 46.4294 56.1933C47.8546 56.8041 48.4654 60.8761 48.669 62.3013C49.8906 61.6905 51.3158 61.0797 52.5374 60.4689C52.1302 59.0437 50.9086 54.9717 51.5194 53.5465C53.3518 50.289 59.4598 48.6602 62.1065 51.1033C63.3281 52.1213 62.9209 56.8041 62.7173 58.2293C66.3821 58.0257 72.0829 59.0437 76.7657 61.0797C77.5801 47.6422 87.9636 58.0257 86.1312 62.0977C85.724 63.1157 85.3168 63.9301 84.0952 65.7625C88.1672 69.4273 91.2212 74.11 92.6464 79.2C79.2089 56.8041 48.8726 56.8041 35.0279 79.4036ZM81.0413 40.7198C73.5081 39.9054 67.4001 33.3902 67.4001 26.2643C67.4001 19.1383 73.5081 14.0483 81.0413 14.8627C88.5744 15.6771 94.6824 22.1923 94.6824 29.3183C94.6824 36.4442 88.5744 41.5342 81.0413 40.7198ZM106.695 62.5049C106.898 62.5049 106.898 62.5049 106.695 62.5049C106.898 62.7085 107.102 63.1157 107.102 63.3193C107.102 62.9121 106.898 62.7085 106.695 62.5049Z" />
</svg>
