<svg version="1.1" xmlns="http://www.w3.org/2000/svg" viewBox="0 0 265.75 98.55859375" width="531.5" height="197.1171875">
  <!-- svg-source:excalidraw -->
  
  <defs>
    <style class="style-fonts">
      @font-face {
        font-family: "Virgil";
        src: url("https://excalidraw.com/Virgil.woff2");
      }
      @font-face {
        font-family: "Cascadia";
        src: url("https://excalidraw.com/Cascadia.woff2");
      }
      @font-face {
        font-family: "Assistant";
        src: url("https://excalidraw.com/Assistant-Regular.woff2");
      }
    </style>
    
  </defs>
  <rect x="0" y="0" width="265.75" height="98.55859375" fill="#ffffff"></rect><g stroke-linecap="round" transform="translate(10 10) rotate(0 122.875 39.279296875)"><path d="M19.64 0 C76 1.72, 132.11 0.07, 226.11 0 M19.64 0 C78.43 -1.98, 138.73 -0.81, 226.11 0 M226.11 0 C237.69 -0.67, 246.61 7.93, 245.75 19.64 M226.11 0 C241 1.3, 243.61 7, 245.75 19.64 M245.75 19.64 C247.05 32.91, 245.29 50.31, 245.75 58.92 M245.75 19.64 C245.45 31.6, 246.52 42.84, 245.75 58.92 M245.75 58.92 C244.34 72.09, 237.68 78.33, 226.11 78.56 M245.75 58.92 C244.98 72.18, 240.24 79.65, 226.11 78.56 M226.11 78.56 C180.93 78.59, 137.45 78.09, 19.64 78.56 M226.11 78.56 C152.55 79.74, 77.24 78.89, 19.64 78.56 M19.64 78.56 C6.58 78.58, -0.08 71.6, 0 58.92 M19.64 78.56 C6.32 78.33, 1 70.96, 0 58.92 M0 58.92 C-0.13 43.37, 1.47 31.11, 0 19.64 M0 58.92 C0.9 46.73, 0.77 34.46, 0 19.64 M0 19.64 C0.19 7.75, 8.22 -1.13, 19.64 0 M0 19.64 C-1.92 4.68, 6.61 1.81, 19.64 0" stroke="#1e1e1e" stroke-width="2" fill="none"></path></g><g transform="translate(68.21875 38.71875) rotate(0 57.499961853027344 12.5)"><text x="0" y="17.52" font-family="Virgil, Segoe UI Emoji" font-size="20px" fill="#1e1e1e" text-anchor="start" style="white-space: pre;" direction="ltr" dominant-baseline="alphabetic">MINAPOLIS</text></g><g stroke-linecap="round"><g transform="translate(234.71337361010035 40.64484665091061) rotate(0 -14.382624823213007 8.653981474089363)" fill-rule="evenodd"><path d="M0 0 L0.27 16.48 L-13.98 25.42 L-28.77 17.06 L-29.03 0.54 L-21.79 -3.8 L-14.65 -8.11 L0 0" stroke="none" stroke-width="0" fill="#ffc9c9" fill-rule="evenodd"></path><path d="M0 0 C0.06 3.83, 0.12 7.66, 0.27 16.48 M0 0 C0.1 5.92, 0.19 11.83, 0.27 16.48 M0.27 16.48 C-5.04 19.81, -10.35 23.14, -13.98 25.42 M0.27 16.48 C-3.53 18.86, -7.33 21.25, -13.98 25.42 M-13.98 25.42 C-19.45 22.33, -24.91 19.24, -28.77 17.06 M-13.98 25.42 C-17.1 23.65, -20.23 21.89, -28.77 17.06 M-28.77 17.06 C-28.86 11.22, -28.96 5.38, -29.03 0.54 M-28.77 17.06 C-28.87 11.12, -28.96 5.18, -29.03 0.54 M-29.03 0.54 C-27.07 -0.64, -25.11 -1.82, -21.79 -3.8 M-29.03 0.54 C-26.92 -0.73, -24.81 -1.99, -21.79 -3.8 M-21.79 -3.8 C-19.48 -5.2, -17.17 -6.59, -14.65 -8.11 M-21.79 -3.8 C-19.18 -5.38, -16.57 -6.95, -14.65 -8.11 M-14.65 -8.11 C-11.65 -6.45, -8.65 -4.79, 0 0 M-14.65 -8.11 C-10.58 -5.86, -6.51 -3.6, 0 0 M0 0 C0 0, 0 0, 0 0 M0 0 C0 0, 0 0, 0 0" stroke="#000000" stroke-width="1" fill="none"></path></g></g><mask></mask><g stroke-linecap="round"><g transform="translate(207.24705384577442 56.236365813120415) rotate(0 -0.09299423981065047 -6.797767800868087)"><path d="M0 0 C-0.06 -4.24, -0.12 -8.48, -0.19 -13.6 M0 0 C-0.07 -5.2, -0.14 -10.4, -0.19 -13.6" stroke="#000000" stroke-width="1" fill="none"></path></g></g><mask></mask><g stroke-linecap="round"><g transform="translate(220.77804029596098 34.2901475453412) rotate(0 5.962222282988023 3.3187579191302774)"><path d="M0 0 C2.99 1.67, 5.98 3.33, 11.92 6.64 M0 0 C3.37 1.87, 6.73 3.75, 11.92 6.64" stroke="#000000" stroke-width="1" fill="none"></path></g></g><mask></mask><g stroke-linecap="round"><g transform="translate(233.28033509182615 56.48304674544403) rotate(0 -6.026090268642349 3.7915756711013984)"><path d="M0 0 C-4.6 2.89, -9.2 5.79, -12.05 7.58 M0 0 C-3.17 1.99, -6.33 3.99, -12.05 7.58" stroke="#000000" stroke-width="1" fill="none"></path></g></g><mask></mask><g stroke-linecap="round"><g transform="translate(52.62871857321295 40.35773727591055) rotate(0 -14.382624823213007 8.653981474089363)" fill-rule="evenodd"><path d="M0 0 L0.27 16.48 L-13.98 25.42 L-28.77 17.06 L-29.03 0.54 L-21.79 -3.8 L-14.65 -8.11 L0 0" stroke="none" stroke-width="0" fill="#ffc9c9" fill-rule="evenodd"></path><path d="M0 0 C0.09 5.35, 0.17 10.69, 0.27 16.48 M0 0 C0.1 6.09, 0.2 12.18, 0.27 16.48 M0.27 16.48 C-5.17 19.89, -10.6 23.3, -13.98 25.42 M0.27 16.48 C-2.86 18.44, -5.99 20.41, -13.98 25.42 M-13.98 25.42 C-18.71 22.75, -23.44 20.07, -28.77 17.06 M-13.98 25.42 C-18.35 22.95, -22.72 20.48, -28.77 17.06 M-28.77 17.06 C-28.84 13.03, -28.9 9, -29.03 0.54 M-28.77 17.06 C-28.87 10.65, -28.97 4.24, -29.03 0.54 M-29.03 0.54 C-27.03 -0.66, -25.03 -1.86, -21.79 -3.8 M-29.03 0.54 C-26.84 -0.78, -24.65 -2.09, -21.79 -3.8 M-21.79 -3.8 C-18.99 -5.5, -16.18 -7.19, -14.65 -8.11 M-21.79 -3.8 C-20.2 -4.76, -18.61 -5.72, -14.65 -8.11 M-14.65 -8.11 C-10.81 -5.99, -6.97 -3.86, 0 0 M-14.65 -8.11 C-10.71 -5.93, -6.76 -3.74, 0 0 M0 0 C0 0, 0 0, 0 0 M0 0 C0 0, 0 0, 0 0" stroke="#000000" stroke-width="1" fill="none"></path></g></g><mask></mask><g stroke-linecap="round"><g transform="translate(25.162398808887133 55.94925643812036) rotate(0 -0.09299423981065047 -6.797767800868087)"><path d="M0 0 C-0.04 -2.96, -0.08 -5.91, -0.19 -13.6 M0 0 C-0.07 -5.15, -0.14 -10.3, -0.19 -13.6" stroke="#000000" stroke-width="1" fill="none"></path></g></g><mask></mask><g stroke-linecap="round"><g transform="translate(38.69338525907358 34.0030381703412) rotate(0 5.962222282988023 3.3187579191302774)"><path d="M0 0 C3.36 1.87, 6.73 3.74, 11.92 6.64 M0 0 C4.35 2.42, 8.71 4.85, 11.92 6.64" stroke="#000000" stroke-width="1" fill="none"></path></g></g><mask></mask><g stroke-linecap="round"><g transform="translate(51.19568005493886 56.19593737044403) rotate(0 -6.026090268642349 3.7915756711013984)"><path d="M0 0 C-3.31 2.09, -6.63 4.17, -12.05 7.58 M0 0 C-3.71 2.34, -7.43 4.67, -12.05 7.58" stroke="#000000" stroke-width="1" fill="none"></path></g></g><mask></mask></svg>